<svg width="83" height="26" viewBox="0 0 83 26" fill="none" xmlns="http://www.w3.org/2000/svg">
<path d="M11.5 0.5L22.3253 6.75V19.25L11.5 25.5L0.674683 19.25V6.75L11.5 0.5Z" fill="#B1B8C0"/>
<path d="M39.5879 23H36.2041C36.1162 23 36.0723 22.9512 36.0723 22.8535V5.74414H32.1758C32.0781 5.74414 32.0293 5.69531 32.0293 5.59766L32.0586 2.24316C32.0586 2.16504 32.0977 2.12598 32.1758 2.12598H43.5723C43.6797 2.12598 43.7334 2.16504 43.7334 2.24316V5.59766C43.7334 5.69531 43.6943 5.74414 43.6162 5.74414H39.6758L39.7051 22.8535C39.7051 22.9512 39.666 23 39.5879 23ZM50.75 23.293C49.6855 23.293 48.7041 23.0195 47.8057 22.4727C46.917 21.9258 46.1992 21.1982 45.6523 20.29C45.1152 19.3721 44.8467 18.3662 44.8467 17.2725L44.876 7.76562C44.876 6.65234 45.1445 5.65137 45.6816 4.7627C46.209 3.86426 46.9219 3.14648 47.8203 2.60938C48.7188 2.0625 49.6953 1.78906 50.75 1.78906C51.8438 1.78906 52.8252 2.05762 53.6943 2.59473C54.5732 3.13184 55.2764 3.85449 55.8037 4.7627C56.3408 5.66113 56.6094 6.66211 56.6094 7.76562L56.6387 17.2725C56.6387 18.3662 56.375 19.3672 55.8477 20.2754C55.3105 21.1934 54.5977 21.9258 53.709 22.4727C52.8203 23.0195 51.834 23.293 50.75 23.293ZM50.75 19.6748C51.3555 19.6748 51.8828 19.4307 52.332 18.9424C52.7812 18.4443 53.0059 17.8877 53.0059 17.2725L52.9766 7.76562C52.9766 7.10156 52.7666 6.54004 52.3467 6.08105C51.9268 5.62207 51.3945 5.39258 50.75 5.39258C50.1348 5.39258 49.6074 5.61719 49.168 6.06641C48.7285 6.51562 48.5088 7.08203 48.5088 7.76562V17.2725C48.5088 17.9268 48.7285 18.4932 49.168 18.9717C49.6074 19.4404 50.1348 19.6748 50.75 19.6748ZM62.4248 23H59.0557C58.958 23 58.9092 22.9512 58.9092 22.8535L58.9678 2.24316C58.9678 2.16504 59.0068 2.12598 59.085 2.12598H68.6943C68.792 2.12598 68.8408 2.16504 68.8408 2.24316V5.62695C68.8408 5.70508 68.8018 5.74414 68.7236 5.74414H62.5713V10.4023H68.7236C68.8018 10.4023 68.8408 10.4512 68.8408 10.5488L68.8701 13.9473C68.8701 14.0254 68.8213 14.0645 68.7236 14.0645H62.5713V22.8535C62.5713 22.9512 62.5225 23 62.4248 23ZM77.0586 23.293C76.0039 23.293 75.0273 23.0195 74.1289 22.4727C73.2305 21.9258 72.5127 21.1934 71.9756 20.2754C71.4482 19.3477 71.1846 18.3369 71.1846 17.2432L71.2432 2.24316C71.2432 2.16504 71.2822 2.12598 71.3604 2.12598H74.7295C74.8076 2.12598 74.8467 2.16504 74.8467 2.24316V17.2432C74.8467 17.917 75.0615 18.4932 75.4912 18.9717C75.9209 19.4404 76.4434 19.6748 77.0586 19.6748C77.7031 19.6748 78.2402 19.4404 78.6699 18.9717C79.0996 18.4932 79.3145 17.917 79.3145 17.2432V2.24316C79.3145 2.16504 79.3535 2.12598 79.4316 2.12598H82.8008C82.8789 2.12598 82.918 2.16504 82.918 2.24316L82.9766 17.2432C82.9766 18.3467 82.7129 19.3623 82.1855 20.29C81.6484 21.208 80.9355 21.9404 80.0469 22.4873C79.1582 23.0244 78.1621 23.293 77.0586 23.293Z" fill="#B1B8C0"/>
</svg>
